<svg version="1.2" xmlns="http://www.w3.org/2000/svg" viewBox="0 0 674 442" width="674" height="442">
	<defs>
		<clipPath clipPathUnits="userSpaceOnUse" id="cp1">
			<path d="m-260-61h1193v1684h-1193z"/>
		</clipPath>
	</defs>
	<style>
		.s0 { fill: #050009 } 
	</style>
	<g id="Page 1" clip-path="url(#cp1)">
		<path id="Path 1" fill-rule="evenodd" class="s0" d="m287.57 82.83c20.68-18.6 44.89-44.27 43.72-58.73-0.54-6.7-7.58-8.57-10.82-8.8-28.76-2.01-75.11 19.45-109.01 52.34-36.69 35.61-61.23 76.99-56.82 106.44 1.97 13.08 13.43 21 30.3 21 17.79 0 72.48-15.75 99.58-30.99 16.15-20.84 61.53-38.76 110.87-47.35 4.81-5.86 9.81-11.72 15.14-17.91-2.05-1.57-4.66-4.33-4.66-5.67 0-1.75 3.62-2.09 11.19-2.76 23.09-27.23 43.39-49.25 44.25-59.77 0.18-2.76-0.34-4.14-1.53-4.81-0.19-0.19 0.52-0.52 1.04-0.33 1.2 0.14 2.58 0.85 5.67 3.61 4.67 4.48 9.48 13.25 8.96 16.16-0.53 2.76-14.14 21.38-34.96 43.42 28.58-4.66 69.73-25.66 74.91-43.05 5.34-17.57-21-26.52-36.18-28.09-28.21-2.91-58.88 1.9-85.74 14.81-14.28 6.9-37.19 19.81-35.14 33.43 0.71 4.1 4.33 7.72 15.18 10.48 3.44 0.86 2.73 2.24 0.68 2.09-8.43-0.52-14.63-1.75-20.67-5.71-5.34-3.24-9.63-8.58-9.48-14.96 0.52-17.91 22.24-34.28 52.53-43.91 29.1-9.29 64.58-12.05 90.58-4.81 31.68 8.95 41.15 38.39 38.73 47.49-4.63 18.8-33.58 30.14-60.59 36.19 16 2.91 34.25 9.47 41.67 21.67 8.96 1.57 19.44 4.14 28.39 6.91 1.9 0.52 2.24 2.05-0.67 1.38-9.66-2.24-18.43-3.62-25.85-4.33 0.85 2.24 1.38 4.66 1.56 7.09 1.05 24.25-28.24 46.15-72.15 64.54-28.05 11.9-60.96 20.33-88.86 22.38-4.11 8.47-4.82 12.24-3.25 15.18l0.52 0.86c0 1.53-13.28-6.04-12.57-15.52-2.24 0-4.48 0-6.56-0.15-16.35-0.85-44.92-11.56-48.73-27.9q-0.24-1.04-0.37-2.09c-19.81 13.16-60.5 23.44-77.3 24.14-19.44 0.8-62.05-10.33-64.73-44.44-2.17-27.56 18.53-64.78 49.24-94.87 35.06-34.33 84.21-62 119.83-62 24.81 0 38.35 19.81 39.25 28.24 1.34 12.43-22.34 37.9-56.11 52.01-2.07 0.86-4.31 0.02-1.04-2.91zm210.08 34.77c-8.77-0.53-17.39-0.71-25.64-0.71-20.51 0-39.95 1.75-61.14 5.52-4.29 5.18-8.43 10.52-12.57 15.67-12.2 15.14-28.39 38.57-40.11 58.38 24.77-5.18 50.63-14.29 74.02-23.95 39.62-16.52 64.43-39.06 65.44-54.91zm-158.22 81.96c13.24-24.96 29.62-48.39 47-71.48-6.9 1.75-13.43 3.81-19.62 5.86-51.15 16.9-80.58 43.05-76.48 57 1.75 5.67 11.19 8.43 17.05 9.14 10 1.2 20.85 0.86 32.05-0.52zm120.68-88.16c12.39 0 24.81 0.53 36.68 1.53-4.29-10.48-26.53-16.67-45.78-16.67-5.18 0-10.33 0.48-18.8 1.53-4.81 5.18-9.44 10.33-13.92 15.67 13.58-1.39 27.72-2.06 41.82-2.06zm-398.63 182.46c7.84-7.05 17.09-16.77 16.57-22.24-0.13-2.55-2.87-3.27-4.1-3.34-10.9-0.78-28.38 7.45-41.3 19.83-13.82 13.57-23.22 29.18-21.53 40.33 0.72 4.96 5.09 7.96 11.48 7.96 13.09 0 35.48-12.33 56.8-31.36 1.17-1.71 2.4-3.43 3.61-5.11 6.39-8.94 14.62-20.03 17.42-25.25 1.44-2.68 2.02-4.83 0.84-5.41-0.05 0 0.53-0.52 2.17 0.85 1.3 1.1 4.04 5.02 3.97 5.93 0 0.13-0.07 0.26-0.13 0.39l-16.83 23.49c-0.4 0.52-13.77 18.78-13.77 21.52 0 0.2 0.07 0.33 0.33 0.33 1.24 0 10.42-7.35 18.59-15 1.89-2.04 4.03-4.08 6.27-5.95 6.32-5.27 13.5-9.45 18.19-9.45 5.16 0 9.33 3.39 9.33 7.3 0 0.98-2.08 2.62-4.1 3.59 1.03 1.38 2.08 3.2 2.02 3.79 0 0.13-0.07 0.2-0.14 0.33l-1.63 1.82c-5.66 6.46-9.06 12.13-9.13 13.32 0 0.18 0 0.32 0.33 0.32 1.43 0 12.46-8.92 21.05-17.22q-0.17-0.49-0.18-1.06c0-5.41 13.12-12.32 20.56-12.32 3.91 0 7.05 3.84 6.98 5.68-0.07 3.05-6.72 5.27-8.48 5.74-0.4 0.13-0.6-0.27-0.4-0.47 1.18-1.17 6.21-5.21 6.08-6.64 0-0.27-0.27-0.59-1.12-0.59-6.51 0-18.85 7.95-18.85 11.02 0 1.05 4.11 2.02 5.09 2.42 7.91-2.75 14.35-3.93 18.86-4.63q-0.01-0.1-0.01-0.21c0-5.41 13.12-12.32 20.55-12.32 3.92 0 7.06 3.84 6.99 5.68-0.07 3.05-6.72 5.27-8.48 5.74-0.4 0.13-0.6-0.27-0.4-0.47 1.17-1.17 6.2-5.21 6.08-6.64 0-0.27-0.27-0.59-1.12-0.59-6.52 0-18.85 7.95-18.85 11.02 0 1.05 4.11 2.02 5.08 2.42 9.41-3.27 16.73-4.32 21.21-4.97 1.55-1.98 3.17-4.02 4.76-6.06 1.04-1.3 2.15-3.13 2.42-4.18 0.19-0.9-0.4-1.3-1.05-1.43-0.07 0 1.3-0.52 2.87 0.92 2.74 2.47 2.94 5.09 2.87 5.99q-0.01 0.2-0.13 0.4c0 0-4.51 5.22-6.98 8.28-5.09 6.33-9.78 12.79-9.78 14.09 0 0.26 0.12 0.66 0.52 0.66 2.67 0 23.28-16.37 30.07-24.33 1.17-1.37 2.48-3.21 2.36-5.23-0.07-0.45-0.2-0.78-0.53-0.98-0.07 0 0.53-0.52 2.15 0.85 1.3 1.12 3.72 4.44 3.65 5.36q-0.01 0.19-0.13 0.38c0 0-4.11 5.29-6.71 8.75-4.51 5.99-10.65 14.74-15.73 23.1 7.18-8.63 21.07-21.55 24.59-24.54 0.47-0.4 0.92 0.39 0.72 0.59-2.22 2.08-15.32 15.97-23.94 26.42-3.85 4.69-9.39 11.6-11.81 17.09-0.97 2.15-1.37 4.04-1.37 5.21q0.02 0.79 0.33 1.18c0 0.92-7.04-3.2-5.35-7.76 2.87-7.51 13.63-24.33 19.11-32.75 1.38-2.15 3.99-6.14 6.27-9.19-7.57 8.14-18.27 18.26-22.05 20.21-0.2 0.07-0.26 0.07-0.33 0.07-1.24 0-2.54-0.85-3.72-2.14-1.57-1.77-2.94-4.57-2.94-6.41 0-1.77 4.13-7.25 9.12-13.62-3.75 1.06-9.55 2.37-17.07 5.47 3.01 1.31 5.55 2.81 5.55 4.7 0 1.56-0.59 3.32-3.53 5.74-4.95 3.79-12.72 7.11-18.72 7.11-3.66 0-7.9-4.37-7.3-6.66 0.65-2.41 6.19-6.51 12.72-9.2 1.95-0.85 3.91-1.55 5.73-2.34-3.19-1.12-6.58-2.24-7.47-4.44-3.73 1.01-9.04 2.35-15.69 5.09 3.01 1.31 5.55 2.81 5.55 4.7 0 1.56-0.59 3.32-3.53 5.74-4.95 3.79-12.72 7.11-18.71 7.11-3.67 0-7.91-4.37-7.31-6.66 0.65-2.41 6.19-6.51 12.72-9.2 1.95-0.85 3.91-1.55 5.74-2.34-2.84-1-5.84-1.99-7.1-3.75-3.76 4.93-18.16 19.97-22.13 21.1-0.2 0.07-0.27 0.07-0.33 0.07-2.49 0-6.13-4.11-5.93-6.6 0-0.18 0.05-0.45 0.12-0.65 0.4-1.1 2.75-4.49 7.71-10.82l-4.39 3.98c-7.3 6.72-16.43 14.02-18.98 14.02-1.89 0-6.13-4.17-6.13-7.3 0-1.03 0.38-2.3 1.07-3.71-4.4 4.51-11.53 11.08-13.4 11.08-0.9 0-1.89-0.52-2.87-1.37-1.57-1.37-2.87-3.21-2.8-4.44 0-0.32 0.13-0.72 0.26-1.04 0.71-1.89 2.72-5.3 5.31-9.27-13.59 13.49-32.93 29.81-46.99 30.34-7.37 0.33-23.48-3.91-24.53-16.83-0.79-10.45 7.04-24.52 18.66-35.95 13.3-12.98 31.9-23.49 45.4-23.49 9.4 0 14.54 7.51 14.87 10.7 0.52 4.71-8.41 14.49-21.26 19.71-0.72 0.45-1.64 0-0.4-1.11zm60.67 6.27c-0.07 0 0.33-0.4 1.37 0.32 0.2 0.13 0.4 0.26 0.98 0.91 1.69-2.28 2.22-4.17 1.96-5.42-0.27-1.1-1.11-1.43-2.09-1.43-0.52 0-1.1 0.06-1.63 0.2-4.76 1.03-10.5 5.09-15.66 9.91-7.37 6.91-13.5 14.69-13.5 16.91 0 0.18 0.06 0.45 0.51 0.45 2.49 0 27.81-16.31 28.33-21.4 0-0.13-0.07-0.33-0.27-0.45zm26.88 10.5c-2.28 0.97-4.69 2.08-7.18 3.39-7.88 4.11-12.12 8.35-12.12 9.65 0 0.2 0.25 0.2 0.52 0.2 2.8 0 9.98-3.53 15.2-6.58 2.86-1.64 5.35-3.47 5.8-4.64 0.46-1.05-0.72-1.5-2.22-2.02zm28.71 0c-2.29 0.97-4.69 2.08-7.18 3.39-7.89 4.11-12.13 8.35-12.13 9.65 0 0.2 0.26 0.2 0.53 0.2 2.8 0 9.98-3.53 15.19-6.58 2.87-1.64 5.36-3.47 5.81-4.64 0.45-1.05-0.72-1.5-2.22-2.02zm113.9 5.47c8.3 8.95 13.84 13.38 17.03 13.31 2.29 0 4.44-2.61 5.29-3.64 0.32-0.4 0.45-0.27 0.32 0.18-0.25 0.85-0.84 2.09-1.62 3.21-1.64 2.6-3.54 4.69-6.01 5.6-3.39 1.24-10.05-4.1-19.38-15.2-10.37 7.11-18.98 12.72-23.22 12.72-7.56 0-13.37-6.59-13.37-11.6 0-1.25 0.25-2.49 0.85-3.59 2.74-5.29 12-11.82 22.12-15.73-1.45-2.35-3.07-5.94-3.07-9.06 0-12.85 16.69-26.75 28.57-26.75 6.45 0 10.89 6.12 10.89 13.18 0 2.6-7.76 10.3-16.96 15.26-0.85 0.45-1.77 0.2-1.04-0.39 8.02-6.46 15.26-15.47 15.26-19.18 0-0.91-0.78-2.35-3.12-2.87-8.23-1.7-30.41 8.08-30.41 17.61 0 4.7 10.18 18.08 15.33 23.74 13.38-8.01 27.08-17.93 34.84-25.64 0.19-0.18 0.45-0.32 0.65-0.32 0.32 0 0.52 0.2 0.52 0.46 0 0.2-0.13 0.46-0.33 0.65-7.75 8.41-20.8 19.19-33.14 28.05zm-17.09-13.3c-11.93 6.13-19.51 18.06-19.51 21.92 0 1.17 1.05 2.08 2.49 2.08 5.8 0 15.59-4.24 26.87-10.56-2.87-3.39-7.31-9.85-9.85-13.44zm105.23-28.06c-5.41 2.62-14.09 7.51-13.31 12.66 0.27 1.56 1.64 2.93 5.75 3.98 1.3 0.32 1.03 0.84 0.26 0.79-3.2-0.2-5.55-0.67-7.84-2.16-2.02-1.23-3.64-3.26-3.59-5.67 0.2-6.79 8.43-12.99 19.91-16.64 11.02-3.52 24.46-4.56 34.31-1.82 12.01 3.39 15.6 14.54 14.68 17.99-1.76 7.12-12.72 11.42-22.96 13.71 6.07 1.1 12.98 3.59 15.79 8.21 2.5 0.44 5.31 1.08 7.97 1.81 3.41-4.16 8.2-8.32 12.46-11.06 4.56-2.94 8.86-4.89 12.19-4.89 3.98 0 7.57 4.04 7.57 7.36 0 3.26-16.19 14.03-28.12 14.09-2.49 3.46-3.39 6.53-3.52 7.9-0.07 0.98 0.65 1.37 1.7 1.37 3.45 0 9.51-3.06 13.5-5.23 5.54-2.95 12.38-7.19 18.25-11.9 1.5-1.52 3.11-3.01 4.79-4.41 6.31-5.27 13.49-9.45 18.19-9.45 5.16 0 9.33 3.39 9.33 7.3 0 0.98-2.08 2.62-4.1 3.59 1.03 1.38 2.08 3.2 2.02 3.79 0 0.13-0.07 0.2-0.14 0.33l-1.63 1.82c-5.67 6.46-9.06 12.13-9.13 13.32 0 0.18 0 0.32 0.33 0.32 1.39 0 11.99-8.55 20.5-16.69 1.91-2.53 3.95-5.19 5.93-7.78 1.03-1.37 2.15-3.13 2.4-4.18 0.2-0.9-0.38-1.3-1.03-1.43 0.13-0.07 1.3-0.52 2.87 0.92 2.73 2.47 3.12 5.22 3.07 6.12 0 0.14-0.08 0.27-0.15 0.4 0 0-4.62 5.21-7.11 8.28-5.08 6.33-8.73 12.14-8.73 13.44 0 0.26 0.13 0.65 0.52 0.65 2.22 0 24.4-17.81 29.29-23.94 1.04-1.3 2.42-3.25 2.29-4.95 0-0.52-0.2-0.85-0.59-1.04-0.08 0 1.24-0.27 2.79 1.17 2.49 2.27 3.21 4.62 3.14 5.54 0 0.13-0.07 0.27-0.13 0.4 0 0-1.24 1.3-2.74 3.19-5.81 7.11-13.17 18.13-13.24 19.5 0 0.2 0.07 0.33 0.32 0.33 1.37 0 12.26-8.82 20.92-17.2q1.62-2.34 3.3-4.65l10.5-14.82c-3.99 1.18-6.79 2.35-7.45 3-0.78 0.85 1.12 2.09 2.22 2.69 0.27 0.12 0.07 0.32-0.13 0.32-3.07-0.27-5.29-1.89-5.48-2.54-1.03-3.01 2.41-5.49 3.46-5.88 3.27-1.37 6.78-2.02 10.63-2.35 1.44-2.15 2.61-4.04 3.46-5.61 1.44-2.67 2.02-4.82 0.85-5.41-0.07 0 0.52-0.53 2.15 0.84 1.31 1.12 4.04 5.04 3.98 5.94 0 0.13-0.07 0.27-0.12 0.4l-2.62 3.64h0.6c2.16 0 4.66 0.09 7.22 0.25 0.43-1.4 0.66-2.65 0.66-3.7 0-0.72-0.32-1.37-0.97-1.63 0 0 0.59-0.46 2.47 0.79 1.86 1.27 3.38 3.66 3.84 5.04 4.91 0.51 9.23 1.24 10.9 2.07 0.2 0.05 0 0.19-0.05 0.19-3.11-0.34-7.14-0.37-11.63-0.28-2.07 2.1-6.86 5.71-7.03 5.82-1.05 0.66-1.63-0.45-1.44-0.84 0.89-1.68 1.66-3.29 2.28-4.8q-0.52 0.02-1.04 0.03c-2.54 0.07-5.41 0.27-8.35 0.65l-11.48 16.19c-0.4 0.52-13.77 18.78-13.77 21.52 0 0.2 0.06 0.33 0.33 0.33 1.35 0 12.06-8.66 20.68-16.98 1.85-2.58 3.64-5.09 5.09-7.29 1.64-2.54 2.54-5.02 1.37-5.61-0.06 0 0.52-0.52 2.16 0.85 1.3 1.11 3.45 4.24 3.39 5.16 0 1.04-4.18 5.93-9.14 12.92-3.25 4.62-6.07 9.32-6.07 10.62 0 0.2 0.07 0.33 0.33 0.33 1.34 0 11.96-8.58 20.56-16.86 1.1-1.63 2.22-3.25 3.31-4.74-0.38-0.52-0.78-1.04-1.23-1.37-1.04-0.32-1.82-0.85-1.82-1.55 0-0.8 1.43-3.34 2.92-4.51 1.38 0.72 2.68 1.3 4.19 1.82 5.27-7.31 11.21-15.59 13.5-19.83 1.44-2.67 2.02-4.82 0.85-5.41-0.08 0 0.52-0.53 2.14 0.84 1.32 1.12 4.05 5.04 3.99 5.94 0 0.13-0.07 0.27-0.13 0.4l-13.76 19.38q1.65 0.07 3.71 0.05c3.52 0 6.91-0.38 9.78-1.3 0.4-0.13 0.46 0.33 0.13 0.52-4.42 2.35-10.36 3.6-15.97 4.05l-4.44 6.13c1.17 3.59 1.7 7.89 1.75 11.42 0.27 24.07-15.84 39.14-20.93 39.2-2.42 0.07-8.55-3.97-8.61-7.82-0.07-7.31 7.69-21.99 15.52-35.24q0.67-1.12 1.48-2.42-1.81 2-4.09 4.39c-4.3 4.49-12.06 11.74-14.02 11.74-0.91 0-1.9-0.52-2.87-1.37-1.57-1.37-2.87-3.21-2.8-4.44 0-0.32 0.12-0.72 0.25-1.04 0.83-2.17 2.57-5.03 4.66-8.12q-1.4 1.52-3.03 3.23c-4.3 4.49-12.07 11.74-14.02 11.74-0.92 0-1.9-0.52-2.87-1.37-1.57-1.37-2.87-3.21-2.82-4.44 0-0.32 0.14-0.72 0.27-1.04 0.71-1.88 2.71-5.28 5.29-9.24q-1.8 1.98-4.06 4.35c-4.29 4.49-12.07 11.74-14.02 11.74-2.47 0-5.61-4.31-5.61-6.78 0-2.09 5.21-9.07 8.48-13.57-7.56 8.14-18.79 18.26-22.57 20.21-0.2 0.07-0.26 0.07-0.33 0.07-1.24 0-2.54-0.85-3.72-2.14-1.57-1.77-2.74-3.72-2.74-5.56 0-0.95 1.21-3.08 3.1-5.88-5.66 5.98-12.87 12.83-15.49 13.58-0.2 0.07-0.27 0.07-0.33 0.07-2.49 0-6.13-4.11-5.94-6.6 0-0.18 0.06-0.45 0.13-0.65 0.4-1.1 2.74-4.49 7.7-10.82l-4.38 3.98c-7.3 6.72-16.44 14.02-18.98 14.02-1.89 0-6.13-4.17-6.13-7.3 0-1.85 1.22-4.44 3.23-7.3-8.9 7.59-19.9 14.67-24.89 14.67-3.14 0-8.48-5.03-8.55-8.22-0.07-2.35 1.17-5.22 3.14-8.16q0.65-0.97 1.42-1.95c-2.46-0.48-4.72-0.8-6.72-0.99 0.32 0.85 0.52 1.77 0.59 2.69 0.4 9.19-10.7 17.48-27.34 24.45-10.62 4.51-23.09 7.7-33.66 8.48-1.56 3.21-1.83 4.64-1.23 5.75l0.19 0.33c0 0.58-5.03-2.29-4.76-5.88-0.85 0-1.7 0-2.49-0.06-6.19-0.32-17.01-4.38-18.46-10.57-2.54-11.03 19.51-21.47 44.17-25.77 1.83-2.22 3.72-4.44 5.74-6.78-0.77-0.6-1.76-1.64-1.76-2.15 0-0.67 1.37-0.79 4.24-1.05 8.75-10.31 16.43-18.65 16.76-22.64 0.07-1.05-0.13-1.57-0.58-1.82-0.07-0.07 0.2-0.2 0.4-0.13 0.45 0.06 0.97 0.32 2.14 1.37 1.77 1.7 3.59 5.02 3.4 6.12-0.2 1.05-5.36 8.1-13.25 16.45 10.83-1.76 26.42-9.72 28.39-16.31 2.02-6.66-7.96-10.05-13.72-10.64-10.68-1.1-22.3 0.72-32.48 5.61zm39.47 32.3c-3.32-0.2-6.59-0.27-9.71-0.27-7.78 0-15.14 0.66-23.17 2.09-1.63 1.97-3.19 3.99-4.76 5.94-4.63 5.74-10.76 14.61-15.2 22.12 9.39-1.97 19.18-5.42 28.05-9.08 15.01-6.26 24.41-14.8 24.79-20.8zm-59.95 31.05c5.02-9.45 11.23-18.33 17.81-27.08-2.61 0.66-5.09 1.44-7.43 2.22-19.38 6.4-30.53 16.31-28.98 21.6 0.66 2.14 4.24 3.19 6.46 3.46 3.79 0.45 7.9 0.32 12.14-0.2zm45.73-33.4c4.69 0 9.4 0.2 13.89 0.58-1.62-3.97-10.05-6.32-17.34-6.32-1.97 0-3.92 0.19-7.12 0.58-1.83 1.97-3.58 3.92-5.28 5.94 5.15-0.52 10.5-0.78 15.85-0.78zm31.19 6.72c5.22-1.05 12-5.15 16.5-8.49 4.76-3.52 6.6-6.33 6.6-7.11 0-0.58-0.4-0.72-0.85-0.72-5.23 0-15.66 8.68-22.25 16.32zm53.63-11.28c-0.07 0 0.32-0.4 1.37 0.32 0.2 0.13 0.4 0.26 0.98 0.91 1.69-2.28 2.21-4.17 1.96-5.42-0.27-1.1-1.12-1.43-2.09-1.43-0.52 0-1.1 0.06-1.63 0.2-4.76 1.03-10.5 5.09-15.66 9.91-7.38 6.91-13.5 14.69-13.5 16.91 0 0.18 0.06 0.45 0.51 0.45 2.49 0 27.81-16.31 28.33-21.4 0-0.13-0.07-0.33-0.27-0.45zm96.62 6.78c-10.7 16.31-22.1 40.51-22.1 44.88 0 0.92 0.65 0.92 0.9 0.92 2.49 0 8.95-5.36 14.22-13.64 4.44-6.86 8.16-15.72 7.9-25.18-0.07-2.29-0.32-4.7-0.92-6.98zm47.5-4.96c-5.81 7.11-13.18 18.13-13.25 19.5 0 0.2 0.07 0.33 0.33 0.33 1.35 0 12.08-8.68 20.7-16.99 1.12-1.62 2.28-3.26 3.44-4.86 6.39-8.94 14.61-20.03 17.41-25.25 1.45-2.68 2.02-4.83 0.85-5.41-0.06 0 0.52-0.52 2.16 0.85 1.3 1.1 4.05 5.02 3.98 5.93 0 0.13-0.08 0.26-0.13 0.39l-16.84 23.49c-0.39 0.52-13.76 18.78-13.76 21.52 0 0.2 0.07 0.33 0.32 0.33 1.37 0 12.4-8.93 21.08-17.36 0.45-0.45 0.97 0 0.65 0.47-1.43 1.88-4.57 5.47-8.87 9.98-4.31 4.49-12.07 11.74-14.03 11.74-0.91 0-1.89-0.52-2.87-1.37-1.57-1.37-2.87-3.21-2.8-4.44 0-0.32 0.13-0.72 0.26-1.04 0.69-1.84 2.61-5.13 5.1-8.97q-1.7 1.88-3.8 4.08c-4.3 4.49-12.08 11.74-14.03 11.74-2.47 0-5.61-4.31-5.61-6.78 0-2.09 5.22-9.07 8.48-13.57-7.56 8.14-18.78 18.26-22.57 20.21-0.2 0.07-0.25 0.07-0.32 0.07-1.25 0-2.55-0.85-3.72-2.14-1.57-1.77-2.74-3.72-2.74-5.56 0-2.4 7.76-12.4 14.68-21.46 1.03-1.37 2.15-3.13 2.4-4.18 0.2-0.9-0.38-1.3-1.03-1.43 0.13-0.07 1.3-0.52 2.87 0.92 2.73 2.47 3.13 5.22 3.07 6.12 0 0.14-0.07 0.27-0.14 0.4 0 0-4.62 5.21-7.11 8.28-5.09 6.33-8.74 12.14-8.74 13.44 0 0.26 0.13 0.65 0.53 0.65 2.22 0 24.39-17.81 29.28-23.94 1.05-1.3 2.42-3.25 2.29-4.95 0-0.52-0.2-0.85-0.59-1.04-0.07 0 1.24-0.27 2.8 1.17 2.49 2.27 3.21 4.62 3.14 5.54 0 0.13-0.07 0.27-0.13 0.4 0 0-1.25 1.3-2.74 3.19zm-433.37 106.14q0.14 1.02-0.18 2.14c0.71-0.09 2.11-0.21 3.15-0.3q0.91-1.16 1.84-2.34c0.49-0.61 1.02-1.49 1.14-1.98 0.1-0.43-0.18-0.62-0.49-0.68-0.04 0 0.61-0.25 1.36 0.44 1.3 1.17 1.4 2.41 1.36 2.84q0 0.1-0.06 0.19c0 0-2.14 2.48-3.31 3.94-2.42 3-4.65 6.07-4.65 6.69 0 0.12 0.06 0.31 0.25 0.31 1.27 0 11.06-7.78 14.28-11.56 0.56-0.65 1.18-1.52 1.12-2.48-0.03-0.22-0.09-0.37-0.25-0.47-0.03 0 0.25-0.24 1.02 0.41 0.62 0.53 1.77 2.11 1.74 2.54q-0.01 0.09-0.06 0.18c0 0-1.96 2.52-3.19 4.16-2.15 2.85-5.06 7-7.48 10.97 3.41-4.09 10.02-10.23 11.69-11.65 0.22-0.19 0.43 0.18 0.34 0.28-1.05 0.98-7.28 7.59-11.38 12.55-1.82 2.23-4.45 5.51-5.6 8.12-0.47 1.02-0.65 1.92-0.65 2.47q0 0.38 0.15 0.56c0 0.44-3.34-1.52-2.54-3.68 1.36-3.57 6.47-11.56 9.08-15.56 0.65-1.02 1.89-2.92 2.98-4.37-3.6 3.87-8.68 8.68-10.48 9.6-0.09 0.04-0.12 0.04-0.15 0.04-0.6 0-1.21-0.4-1.77-1.02-0.75-0.84-1.4-2.17-1.4-3.04 0-0.89 2.15-3.7 4.67-6.9-1.04 0.15-2.26 0.33-2.96 0.45-1.12 2.85-4.06 5.73-5.92 7.13-2.08 1.58-5.15 3.28-8.03 3.28-0.99 0-2.26-0.46-3.16-1.26-0.77-0.75-1.18-1.4-1.18-2.08 0-0.75 0.96-1.83 2.7-2.95q-0.24-0.22-0.25-0.4c0-0.59 0.65-1.77 1.08-2.57 2.02-3.66 5.55-8.16 8.06-11.96q1.11-1.68 2.02-3.35c0.68-1.27 0.96-2.29 0.4-2.58-0.03 0 0.52-0.15 1.3 0.5 0.93 0.81 1.58 2.14 1.55 2.57q-0.01 0.09-0.06 0.19l-5.7 7.93c0.84-0.37 2.01-0.59 3.16-0.59 1.76 0 4.24 1.89 4.46 3.29zm-13.79 5.7c2.42-1.15 5.58-2.23 9.91-3.03 1.18-1.86 1.71-3.45 1.61-4.03-0.08-0.56-0.67-0.81-1.32-0.81-1.18 0-3.04 0.93-4.75 2.2-2.01 1.49-3.78 3.22-5.45 5.67zm-0.34 5.46c2.6-0.9 5.36-3.04 7.59-5.24q1.11-1.12 1.95-2.23c-1.3 0.31-1.79 0.43-2.26 0.59-7.78 2.5-10.48 6.07-10.48 6.72 0 0.25 0.1 0.59 0.78 0.59 0.81 0 1.55-0.15 2.42-0.43zm66.98-13.33c3.72-3.35 8.12-7.97 7.87-10.57-0.06-1.21-1.37-1.55-1.95-1.58-5.18-0.37-13.48 3.54-19.62 9.42-6.57 6.45-11.04 13.86-10.23 19.16 0.34 2.36 2.42 3.78 5.45 3.78 6.23 0 16.9-5.88 27.05-14.96q0.61-1.07 1.37-2.34c1.31-2.14 2.49-3.63 1.53-4-0.1 0 0.21-0.24 1.14 0.35 0.78 0.46 2.14 2.13 2.14 2.63 0 0.09 0 0.13-0.03 0.15-1.08 0.9-7.87 11.13-6.54 11.91 0.15 0.09 0.28 0.18 0.87-0.03 0.62-0.25 1.64-1 2.85-2.11 3.41-3.17 8.24-9.11 8.77-12.99q0.08-0.74-0.43-1.39c1.27 0.28 2.69 2.66 2.66 3.71-0.06 2.17-5.95 8.28-10.26 11.78-2.36 1.96-3.56 2.57-4.06 2.55-1.24-0.04-2.94-1.77-2.98-3.26-0.01-0.82 0.52-2.39 1.95-5.1-6.48 6.54-16.15 14.94-23.11 15.21-3.5 0.15-11.16-1.86-11.65-8-0.38-4.96 3.34-11.65 8.86-17.08 6.32-6.17 15.16-11.16 21.57-11.16 4.47 0 6.91 3.57 7.06 5.09 0.25 2.23-3.99 6.88-10.1 9.36-0.34 0.21-0.77 0-0.18-0.53zm33.34-1.05c1.89 0 3.6 1.92 3.6 3.5 0 1.55-7.69 6.67-13.36 6.69-1.18 1.65-1.61 3.1-1.67 3.76-0.03 0.46 0.31 0.65 0.8 0.65 1.64 0 4.52-1.46 6.42-2.49 2.78-1.48 6.26-3.65 9.14-6.04 0.06-0.05 0.17-0.01 0.25 0.06q0.77-1.11 1.55-2.2l4.99-7.03c-1.89 0.55-3.22 1.11-3.54 1.42-0.37 0.4 0.53 0.99 1.06 1.28 0.13 0.06 0.03 0.15-0.06 0.15-1.46-0.13-2.51-0.9-2.61-1.21-0.49-1.43 1.15-2.6 1.65-2.79 1.55-0.65 3.22-0.96 5.05-1.12q1.03-1.54 1.64-2.66c0.69-1.27 0.96-2.29 0.41-2.57-0.04 0 0.24-0.25 1.02 0.4 0.62 0.53 1.92 2.39 1.89 2.82q-0.01 0.09-0.06 0.19l-1.24 1.73h0.28c1.03 0 2.22 0.04 3.43 0.12q0.31-1.01 0.32-1.76c0-0.34-0.16-0.65-0.47-0.78 0 0 0.29-0.21 1.18 0.38 0.88 0.6 1.6 1.74 1.82 2.39 2.33 0.25 4.39 0.59 5.18 0.98 0.1 0.03 0 0.1-0.02 0.1-1.48-0.16-3.4-0.18-5.53-0.14-0.98 1-3.26 2.72-3.34 2.77-0.5 0.31-0.77-0.21-0.68-0.4q0.64-1.2 1.08-2.28-0.24 0.01-0.49 0.02c-1.21 0.03-2.57 0.12-3.97 0.3l-5.45 7.69c-0.19 0.25-6.55 8.93-6.55 10.23 0 0.09 0.03 0.16 0.16 0.16 0.64 0 5.73-4.12 9.83-8.07 0.87-1.23 1.73-2.42 2.41-3.46 0.78-1.21 1.21-2.39 0.65-2.67-0.02 0 0.25-0.25 1.03 0.4 0.62 0.53 1.64 2.02 1.61 2.45 0 0.5-1.99 2.82-4.34 6.14-1.55 2.2-2.88 4.43-2.88 5.05q-0.02 0.15 0.15 0.16c0.65 0 5.89-4.25 10.01-8.25 0.22-0.22 0.47 0 0.31 0.22-0.68 0.89-2.17 2.6-4.22 4.74-2.04 2.14-5.72 5.58-6.66 5.58-0.43 0-0.9-0.25-1.36-0.65-0.75-0.65-1.36-1.52-1.33-2.11 0-0.15 0.06-0.34 0.12-0.49 0.39-1.04 1.22-2.39 2.21-3.86q-0.66 0.72-1.44 1.53c-2.04 2.14-5.73 5.58-6.66 5.58-0.43 0-0.9-0.25-1.36-0.65-0.75-0.65-1.36-1.52-1.34-2.11 0-0.15 0.07-0.34 0.13-0.49 0.44-1.18 1.94-3.6 3.74-6.23-4.39 4.38-11.64 9.48-14.56 9.48-1.49 0-4.03-2.39-4.06-3.91-0.03-1.11 0.56-2.47 1.49-3.87 1.58-2.36 4.4-4.93 6.85-6.51 2.17-1.39 4.21-2.32 5.79-2.32zm-9.11 9.39c2.48-0.5 5.7-2.45 7.84-4.03 2.26-1.67 3.13-3.01 3.13-3.38 0-0.28-0.18-0.34-0.4-0.34-2.48 0-7.44 4.12-10.57 7.75zm55.42-17.42c-2.57 1.24-6.69 3.56-6.32 6.01 0.13 0.74 0.78 1.39 2.73 1.89 0.62 0.16 0.49 0.4 0.12 0.38-1.52-0.1-2.63-0.32-3.72-1.03-0.96-0.58-1.73-1.54-1.7-2.69 0.09-3.23 4-6.17 9.45-7.91 5.24-1.67 11.62-2.17 16.31-0.86 5.7 1.61 7.4 6.91 6.97 8.54-0.84 3.39-6.05 5.43-10.91 6.52 2.88 0.52 6.17 1.7 7.5 3.9 1.16 0.2 2.46 0.5 3.7 0.83 2.08-2.64 5.21-5.08 7.67-5.79 0.87-0.9 2.82-1.67 3.72-1.86 1.73-0.37 3.75 1.74 4.09 4.09 1.37 0.08 2.74 0.09 3.68 0.06q0.42-0.63 0.85-1.26c0.77-1.21 1.21-2.39 0.65-2.67-0.04 0 0.25-0.25 1.02 0.4 0.62 0.53 1.7 2.02 1.67 2.45 0 0.5-2.23 3.23-4.34 6.07-1.89 2.55-4.03 5.89-6.01 9.12l0.77-0.84c3.75-3.9 9.27-9.3 10.92-10.75q0.01-0.02 0.03-0.03c0.95-1.33 1.89-2.63 2.63-3.75 0.78-1.21 1.2-2.39 0.65-2.67-0.03 0 0.25-0.25 1.03 0.4 0.61 0.53 1.63 2.02 1.61 2.45 0 0.5-1.99 2.82-4.35 6.14-1.54 2.2-2.88 4.43-2.88 5.05q-0.01 0.15 0.15 0.16c0.61 0 5.17-3.67 9.12-7.39 3.1-3.29 7.52-6.55 10.53-6.97 0.29-0.03 0.35-0.03 0.38-0.03 1.33 0 2.67 0.97 3.13 1.96 2.63-3.66 5.51-7.81 6.66-9.92 0.69-1.27 0.96-2.29 0.4-2.57-0.02 0 0.25-0.25 1.03 0.4 0.62 0.53 1.92 2.39 1.89 2.82q-0.01 0.09-0.06 0.19l-7.87 11.12c-0.19 0.25-6.54 8.93-6.54 10.23 0 0.09 0.02 0.16 0.15 0.16 0.59 0 4.95-3.49 8.84-7.13 0.89-0.97 1.91-1.94 2.97-2.83 3-2.5 6.42-4.49 8.65-4.49 2.45 0 4.43 1.61 4.43 3.47 0 0.47-0.99 1.24-1.95 1.71 0.49 0.65 0.99 1.52 0.96 1.8q-0.01 0.07-0.07 0.15l-0.77 0.87c-2.69 3.07-4.3 5.76-4.34 6.32 0 0.09 0 0.16 0.16 0.16 0.67 0 5.81-4.15 9.87-8.06 0.98-1.4 1.94-2.8 2.4-3.5 0.78-1.21 1.21-2.39 0.65-2.67-0.03 0 0.25-0.25 1.03 0.4 0.62 0.53 1.7 2.02 1.67 2.45 0 0.37-1.33 2.11-2.91 4.21q1.16-1.29 2.51-2.53c1.77-1.58 5.42-4.72 6.88-5.03 0.65-0.12 1.7 1.24 1.61 2.73-0.03 0.4-0.19 1.37-0.62 1.77 0.03-0.31-0.09-0.65-0.28-0.93-0.25-0.34-0.9-0.65-1.73-0.56-1.9 0.22-3.82 1.49-6.08 3.41-3.28 2.76-5.67 5.74-6.94 8.09-0.59 1.09-0.78 1.8-0.68 1.95 0.21 0.19-0.06 0.31-0.41 0.25-0.34-0.06-2.01-1.92-1.7-2.85q0.29-0.83 1.17-2.17l1.29-1.91c-2.76 2.98-6.68 6.79-8.04 7.18q-0.13 0.04-0.16 0.03c-1.18 0-2.91-1.95-2.82-3.13 0-0.09 0.03-0.22 0.06-0.31 0.19-0.53 1.31-2.14 3.66-5.15l-2.08 1.9c-3.47 3.19-7.81 6.66-9.02 6.66-0.9 0-2.91-1.98-2.91-3.47q0.01-0.75 0.51-1.78c-2.08 2.14-5.48 5.28-6.37 5.28-0.43 0-0.9-0.25-1.36-0.65-0.74-0.65-1.36-1.52-1.34-2.11 0-0.15 0.06-0.34 0.13-0.49 0.34-0.9 1.3-2.55 2.54-4.44l-1.61 1.52c-3.44 3.19-7.1 6.14-8.31 6.14-0.86 0-2.78-1.9-2.91-3.35-0.03-0.56 0.17-1.26 0.55-2.03-2.07 2.14-5.59 5.41-6.5 5.41-0.43 0-0.9-0.25-1.37-0.65-0.74-0.65-1.36-1.52-1.32-2.11 0-0.15 0.06-0.34 0.12-0.49 0.46-1.21 1.52-2.87 2.73-4.63-2.43 2.55-6.56 7.03-9.52 10.67-1.89 2.29-4.56 5.85-5.73 8.4-0.5 1.11-0.71 2.38-0.4 2.75 0 0.44-3.36-1.52-2.55-3.68 1.34-3.44 4.56-9.12 9.17-15.72 1.5-2.13 3.07-4.28 4.63-6.54-0.86 0.08-2.02 0.14-3.29 0.16-0.22 3.5-8.27 12.65-13.67 11.75-1.18-0.19-4.18-1.61-4.09-4.06 0.04-1.37 0.84-3 2.02-4.58q-1.7-0.32-3.1-0.45 0.23 0.61 0.28 1.28c0.19 4.36-5.08 8.3-12.99 11.62-5.05 2.14-10.97 3.65-15.99 4.02-0.74 1.53-0.87 2.21-0.59 2.74l0.1 0.15c0 0.28-2.39-1.09-2.27-2.79q-0.61 0.01-1.18-0.03c-2.94-0.15-8.08-2.08-8.77-5.02-1.21-5.24 9.27-10.2 20.99-12.24 0.86-1.06 1.76-2.11 2.72-3.23-0.37-0.28-0.84-0.78-0.84-1.02 0-0.31 0.65-0.37 2.02-0.49 4.15-4.91 7.81-8.87 7.96-10.76 0.04-0.5-0.06-0.75-0.27-0.87-0.04-0.03 0.09-0.09 0.18-0.06 0.22 0.03 0.47 0.16 1.02 0.65 0.84 0.81 1.71 2.39 1.62 2.91-0.1 0.5-2.55 3.85-6.3 7.82 5.15-0.84 12.56-4.62 13.49-7.75 0.96-3.17-3.78-4.78-6.52-5.06-5.07-0.52-10.59 0.34-15.43 2.67zm18.75 15.34q-2.37-0.13-4.61-0.13c-3.69 0-7.19 0.32-11.01 1-0.77 0.93-1.52 1.89-2.26 2.82-2.2 2.72-5.11 6.94-7.22 10.51 4.46-0.94 9.11-2.57 13.32-4.31 7.14-2.98 11.6-7.03 11.78-9.89zm-28.48 14.75c2.39-4.49 5.33-8.7 8.46-12.86q-1.86 0.48-3.53 1.05c-9.2 3.04-14.5 7.75-13.76 10.26 0.31 1.02 2.01 1.52 3.06 1.65 1.8 0.21 3.76 0.15 5.77-0.1zm21.73-15.86c2.23 0 4.46 0.09 6.6 0.27-0.77-1.89-4.78-3-8.24-3-0.94 0-1.86 0.09-3.39 0.28q-1.29 1.39-2.5 2.82c2.44-0.25 4.99-0.37 7.53-0.37zm13.14 9.11c2.66-0.03 9.54-6.2 11.84-10.6-1.43-0.1-2.82-0.28-3.85-0.59-4.68 1.55-9.05 7.99-9.05 10.16 0 0.63 0.34 1.03 1.06 1.03zm10.96-14.6c-0.96 0.19-1.63 1.02-1.76 1.64-0.12 0.78 1.24 1.21 3.04 1.46q0.33-0.84 0.34-1.58c0-1.12-0.62-1.71-1.62-1.52zm10.98-2.51c1.11-2.11 1.86-4.03 1.86-5.3 0-0.34-0.16-0.65-0.47-0.78-0.03 0 0.28-0.18 1.18 0.4 1.09 0.75 1.92 2.27 1.89 2.74 0 0.06-0.03 0.08-0.09 0.18-0.59 0.84-3.59 3.1-3.69 3.16-0.49 0.31-0.78-0.21-0.68-0.4zm7.37 0c1.12-2.11 1.86-4.03 1.86-5.3 0-0.34-0.15-0.65-0.46-0.78 0 0 0.28-0.21 1.17 0.38 1.09 0.74 1.93 2.29 1.9 2.76 0 0.06-0.04 0.08-0.1 0.18-0.59 0.84-3.59 3.1-3.68 3.16-0.5 0.31-0.78-0.21-0.69-0.4zm1.21 15.99c0 0.09 0.03 0.22 0.22 0.22 1.06 0 8.46-4.49 11.78-8.59 0.62-0.89 2.38-3.19 2.38-3.81 0-0.37-0.4-0.62-0.74-0.62-3.75 0-10.01 7.16-12.03 9.92-1.3 1.8-1.64 2.54-1.61 2.88zm32.3-10.16c-0.03 0 0.15-0.19 0.65 0.15 0.09 0.06 0.19 0.12 0.46 0.43 0.81-1.08 1.06-1.98 0.94-2.57-0.13-0.52-0.53-0.68-1-0.68q-0.38 0-0.77 0.1c-2.26 0.49-4.99 2.41-7.44 4.7-3.5 3.29-6.41 6.98-6.41 8.03 0 0.09 0.03 0.22 0.24 0.22 1.18 0 13.21-7.75 13.46-10.17 0-0.06-0.04-0.15-0.13-0.21zm26.28-2.27c0.87-0.9 2.82-1.67 3.72-1.86 1.74-0.37 3.75 1.74 4.09 4.09 1.27 0.08 2.52 0.09 3.45 0.06q0.02-0.04 0.05-0.09c1.3-2.14 2.49-3.63 1.53-4-0.1 0 0.21-0.24 1.14 0.35 0.78 0.46 2.14 2.13 2.14 2.63 0 0.09 0 0.13-0.03 0.15-1.08 0.9-7.87 11.13-6.54 11.91 0.15 0.09 0.28 0.18 0.87-0.03 0.62-0.25 1.64-1 2.85-2.11 3.41-3.17 8.24-9.11 8.77-12.99q0.08-0.74-0.43-1.39c1.27 0.28 2.69 2.66 2.66 3.71-0.07 2.17-5.95 8.28-10.26 11.78-2.36 1.96-3.56 2.57-4.06 2.55-1.24-0.04-2.94-1.77-2.98-3.26-0.02-1.12 1-3.67 3.94-8.63-0.84 0.07-1.92 0.12-3.1 0.14-0.21 3.5-8.27 12.65-13.66 11.75-1.18-0.19-4.19-1.61-4.1-4.06 0.13-3.75 5.92-9.55 9.95-10.7zm-6.66 13.55c2.67-0.03 9.54-6.2 11.84-10.6-1.43-0.1-2.82-0.28-3.85-0.59-4.68 1.55-9.04 7.99-9.04 10.16 0 0.63 0.33 1.03 1.05 1.03zm10.97-14.6c-0.96 0.19-1.64 1.02-1.77 1.64-0.12 0.78 1.24 1.21 3.04 1.46q0.33-0.84 0.34-1.58c0-1.12-0.62-1.71-1.61-1.52zm33.07 4.34c0.49 0.65 0.99 1.52 0.96 1.8q-0.01 0.07-0.07 0.15l-0.77 0.87c-2.69 3.07-4.3 5.76-4.34 6.32 0 0.09 0 0.16 0.16 0.16 0.68 0 6.01-4.31 10.1-8.28 0.22-0.22 0.43 0.03 0.28 0.25-1.46 2.05-8.74 9.7-10.69 10.26-0.1 0.03-0.13 0.03-0.16 0.03-1.18 0-2.91-1.95-2.82-3.13 0-0.09 0.03-0.22 0.06-0.31 0.19-0.53 1.31-2.14 3.66-5.15l-2.08 1.9c-3.47 3.19-7.81 6.66-9.02 6.66-0.9 0-2.91-1.98-2.91-3.47 0-1.98 2.98-5.8 6.51-8.75 3-2.5 6.42-4.49 8.65-4.49 2.45 0 4.43 1.61 4.43 3.47 0 0.47-0.99 1.24-1.95 1.71zm-1.49-1.02c-0.03 0 0.15-0.19 0.65 0.15 0.09 0.06 0.19 0.12 0.46 0.43 0.81-1.08 1.06-1.98 0.94-2.57-0.13-0.52-0.53-0.68-1-0.68q-0.38 0-0.77 0.1c-2.26 0.49-4.99 2.41-7.44 4.7-3.5 3.29-6.41 6.98-6.41 8.03 0 0.09 0.02 0.22 0.24 0.22 1.18 0 13.21-7.75 13.46-10.17 0-0.06-0.04-0.15-0.13-0.21z"/>
	</g>
</svg>